<svg width="356" height="55" viewBox="0 0 356 55" fill="none" xmlns="http://www.w3.org/2000/svg">
<path opacity="0.3" d="M17.4984 5.3C21.9984 5.3 25.7151 6.48333 28.6484 8.85C31.6151 11.2167 33.5318 14.4167 34.3984 18.45H25.3484C24.6818 16.8167 23.6484 15.5333 22.2484 14.6C20.8818 13.6667 19.2484 13.2 17.3484 13.2C14.8484 13.2 12.8318 14.1167 11.2984 15.95C9.7651 17.7833 8.99844 20.2333 8.99844 23.3C8.99844 26.3667 9.7651 28.8167 11.2984 30.65C12.8318 32.45 14.8484 33.35 17.3484 33.35C19.2484 33.35 20.8818 32.8833 22.2484 31.95C23.6484 31.0167 24.6818 29.75 25.3484 28.15H34.3984C33.5318 32.15 31.6151 35.35 28.6484 37.75C25.7151 40.1167 21.9984 41.3 17.4984 41.3C14.0651 41.3 11.0484 40.55 8.44844 39.05C5.84844 37.5167 3.83177 35.3833 2.39844 32.65C0.998438 29.9167 0.298438 26.8 0.298438 23.3C0.298438 19.8 0.998438 16.6833 2.39844 13.95C3.83177 11.2167 5.84844 9.1 8.44844 7.6C11.0484 6.06666 14.0651 5.3 17.4984 5.3ZM52.2402 12.75C55.0069 12.75 57.4736 13.3333 59.6402 14.5C61.8402 15.6333 63.5569 17.2833 64.7902 19.45C66.0569 21.6167 66.6902 24.15 66.6902 27.05C66.6902 29.95 66.0569 32.4833 64.7902 34.65C63.5569 36.8167 61.8402 38.4833 59.6402 39.65C57.4736 40.7833 55.0069 41.35 52.2402 41.35C49.4736 41.35 46.9902 40.7833 44.7902 39.65C42.5902 38.4833 40.8569 36.8167 39.5902 34.65C38.3569 32.4833 37.7402 29.95 37.7402 27.05C37.7402 24.15 38.3569 21.6167 39.5902 19.45C40.8569 17.2833 42.5902 15.6333 44.7902 14.5C46.9902 13.3333 49.4736 12.75 52.2402 12.75ZM52.2402 20.15C50.6069 20.15 49.2236 20.75 48.0902 21.95C46.9902 23.1167 46.4402 24.8167 46.4402 27.05C46.4402 29.2833 46.9902 30.9833 48.0902 32.15C49.2236 33.3167 50.6069 33.9 52.2402 33.9C53.8736 33.9 55.2402 33.3167 56.3402 32.15C57.4402 30.9833 57.9902 29.2833 57.9902 27.05C57.9902 24.8167 57.4402 23.1167 56.3402 21.95C55.2402 20.75 53.8736 20.15 52.2402 20.15ZM79.6738 4V41H71.1238V4H79.6738ZM84.777 5.25C84.777 3.95 85.2436 2.88333 86.177 2.05C87.1103 1.18333 88.3436 0.749997 89.877 0.749997C91.4103 0.749997 92.6436 1.18333 93.577 2.05C94.5103 2.88333 94.977 3.95 94.977 5.25C94.977 6.51666 94.5103 7.58333 93.577 8.45C92.6436 9.28333 91.4103 9.7 89.877 9.7C88.3436 9.7 87.1103 9.28333 86.177 8.45C85.2436 7.58333 84.777 6.51666 84.777 5.25ZM94.127 13.1V41H85.577V13.1H94.127ZM110.18 12.75C113.713 12.75 116.53 13.6333 118.63 15.4C120.763 17.1667 122.097 19.5 122.63 22.4H114.63C114.397 21.2667 113.863 20.3833 113.03 19.75C112.23 19.0833 111.213 18.75 109.98 18.75C109.013 18.75 108.28 18.9667 107.78 19.4C107.28 19.8 107.03 20.3833 107.03 21.15C107.03 22.0167 107.48 22.6667 108.38 23.1C109.313 23.5333 110.763 23.9667 112.73 24.4C114.863 24.9 116.613 25.4167 117.98 25.95C119.347 26.45 120.53 27.2833 121.53 28.45C122.53 29.6167 123.03 31.1833 123.03 33.15C123.03 34.75 122.597 36.1667 121.73 37.4C120.863 38.6333 119.613 39.6 117.98 40.3C116.347 41 114.413 41.35 112.18 41.35C108.413 41.35 105.397 40.5167 103.13 38.85C100.863 37.1833 99.4801 34.8 98.9801 31.7H107.23C107.363 32.9 107.863 33.8167 108.73 34.45C109.63 35.0833 110.78 35.4 112.18 35.4C113.147 35.4 113.88 35.1833 114.38 34.75C114.88 34.2833 115.13 33.6833 115.13 32.95C115.13 31.9833 114.663 31.3 113.73 30.9C112.83 30.4667 111.347 30.0167 109.28 29.55C107.213 29.1167 105.513 28.65 104.18 28.15C102.847 27.65 101.697 26.85 100.73 25.75C99.7634 24.6167 99.2801 23.0833 99.2801 21.15C99.2801 18.65 100.23 16.6333 102.13 15.1C104.03 13.5333 106.713 12.75 110.18 12.75ZM154.264 26.3C154.264 27 154.181 27.7667 154.014 28.6H134.664C134.764 30.7 135.298 32.2167 136.264 33.15C137.231 34.05 138.464 34.5 139.964 34.5C141.231 34.5 142.281 34.1833 143.114 33.55C143.948 32.9167 144.498 32.1 144.764 31.1H153.814C153.448 33.0667 152.648 34.8333 151.414 36.4C150.181 37.9333 148.614 39.15 146.714 40.05C144.814 40.9167 142.698 41.35 140.364 41.35C137.631 41.35 135.198 40.7833 133.064 39.65C130.964 38.4833 129.314 36.8167 128.114 34.65C126.914 32.4833 126.314 29.95 126.314 27.05C126.314 24.1167 126.898 21.5833 128.064 19.45C129.264 17.2833 130.931 15.6333 133.064 14.5C135.198 13.3333 137.631 12.75 140.364 12.75C143.131 12.75 145.564 13.3167 147.664 14.45C149.764 15.5833 151.381 17.1833 152.514 19.25C153.681 21.2833 154.264 23.6333 154.264 26.3ZM145.614 25C145.648 23.1667 145.148 21.8 144.114 20.9C143.114 19.9667 141.864 19.5 140.364 19.5C138.798 19.5 137.498 19.9667 136.464 20.9C135.431 21.8333 134.848 23.2 134.714 25H145.614ZM186.471 13.1V41H177.871V35.95C177.071 37.5833 175.871 38.8833 174.271 39.85C172.705 40.8167 170.871 41.3 168.771 41.3C165.571 41.3 163.021 40.2333 161.121 38.1C159.255 35.9667 158.321 33.0333 158.321 29.3V13.1H166.821V28.25C166.821 30.15 167.305 31.6333 168.271 32.7C169.271 33.7333 170.605 34.25 172.271 34.25C174.005 34.25 175.371 33.7 176.371 32.6C177.371 31.5 177.871 29.9333 177.871 27.9V13.1H186.471ZM228.514 12.8C231.947 12.8 234.647 13.8667 236.614 16C238.581 18.1 239.564 21.0333 239.564 24.8V41H231.064V25.8C231.064 24.0333 230.581 22.6667 229.614 21.7C228.681 20.7 227.397 20.2 225.764 20.2C224.064 20.2 222.714 20.7333 221.714 21.8C220.747 22.8333 220.264 24.3 220.264 26.2V41H211.714V25.8C211.714 24.0333 211.247 22.6667 210.314 21.7C209.381 20.7 208.097 20.2 206.464 20.2C204.764 20.2 203.414 20.7167 202.414 21.75C201.414 22.7833 200.914 24.2667 200.914 26.2V41H192.364V13.1H200.914V17.85C201.647 16.2833 202.764 15.05 204.264 14.15C205.797 13.25 207.581 12.8 209.614 12.8C211.747 12.8 213.631 13.3 215.264 14.3C216.897 15.2667 218.131 16.6667 218.964 18.5C219.931 16.7667 221.247 15.3833 222.914 14.35C224.614 13.3167 226.481 12.8 228.514 12.8ZM277.155 34.55H263.905L261.705 41H252.705L265.655 5.9H275.505L288.455 41H279.355L277.155 34.55ZM274.955 28.05L270.555 15.05L266.105 28.05H274.955ZM309.178 12.75C311.478 12.75 313.528 13.3333 315.328 14.5C317.161 15.6333 318.595 17.2833 319.628 19.45C320.695 21.5833 321.228 24.1167 321.228 27.05C321.228 29.95 320.695 32.4833 319.628 34.65C318.595 36.8167 317.161 38.4833 315.328 39.65C313.528 40.7833 311.478 41.35 309.178 41.35C307.045 41.35 305.211 40.8667 303.678 39.9C302.145 38.9333 301.028 37.6167 300.328 35.95V54.3H291.778V13.1H300.328V18.15C301.028 16.4833 302.145 15.1667 303.678 14.2C305.211 13.2333 307.045 12.75 309.178 12.75ZM306.428 20.25C304.628 20.25 303.145 20.8667 301.978 22.1C300.845 23.3 300.278 24.95 300.278 27.05C300.278 29.1167 300.845 30.7667 301.978 32C303.145 33.2333 304.628 33.85 306.428 33.85C308.261 33.85 309.728 33.25 310.828 32.05C311.961 30.85 312.528 29.1833 312.528 27.05C312.528 24.9167 311.961 23.25 310.828 22.05C309.728 20.85 308.261 20.25 306.428 20.25ZM343.065 12.75C345.365 12.75 347.415 13.3333 349.215 14.5C351.048 15.6333 352.482 17.2833 353.515 19.45C354.582 21.5833 355.115 24.1167 355.115 27.05C355.115 29.95 354.582 32.4833 353.515 34.65C352.482 36.8167 351.048 38.4833 349.215 39.65C347.415 40.7833 345.365 41.35 343.065 41.35C340.932 41.35 339.098 40.8667 337.565 39.9C336.032 38.9333 334.915 37.6167 334.215 35.95V54.3H325.665V13.1H334.215V18.15C334.915 16.4833 336.032 15.1667 337.565 14.2C339.098 13.2333 340.932 12.75 343.065 12.75ZM340.315 20.25C338.515 20.25 337.032 20.8667 335.865 22.1C334.732 23.3 334.165 24.95 334.165 27.05C334.165 29.1167 334.732 30.7667 335.865 32C337.032 33.2333 338.515 33.85 340.315 33.85C342.148 33.85 343.615 33.25 344.715 32.05C345.848 30.85 346.415 29.1833 346.415 27.05C346.415 24.9167 345.848 23.25 344.715 22.05C343.615 20.85 342.148 20.25 340.315 20.25Z" fill="white"/>
</svg>
